<svg width="32" height="32" xmlns="http://www.w3.org/2000/svg"><path d="M19.363 10.183v1.332h5.49v-1.332h-5.49zm2.783 4.577c1.353 0 2.03.795 2.148 2.095H19.91c.087-1.29.947-2.095 2.236-2.095zm.172 6.284c-1.58 0-2.407-.924-2.407-2.492h7.07c.01-.16.02-.333.02-.505 0-2.9-1.696-5.318-4.768-5.318-2.987 0-5.017 2.244-5.017 5.188 0 3.05 1.923 5.146 5.017 5.146 2.342 0 3.856-1.053 4.587-3.298h-2.375c-.258.838-1.31 1.278-2.127 1.278zm-14.342-.537V16.78h3.244c1.31 0 2.138.547 2.138 1.933 0 1.364-.988 1.794-2.202 1.794h-3.18zm0-5.77V11.58h2.793c1.073 0 2.04.3 2.04 1.547 0 1.15-.752 1.61-1.815 1.61h-3.02zM5 9.27v13.536h6.564c2.46 0 4.77-1.182 4.77-3.932 0-1.697-.806-2.954-2.47-3.427 1.213-.58 1.847-1.46 1.847-2.825 0-2.697-2.008-3.352-4.33-3.352H5z" fill-rule="evenodd"/></svg>