<svg width="32" height="32" xmlns="http://www.w3.org/2000/svg"><path d="M16 27c6.075 0 11-4.925 11-11S22.075 5 16 5 5 9.925 5 16s4.925 11 11 11zm7.926-16.944A9.892 9.892 0 0 0 16 6.093c-5.47 0-9.907 4.436-9.907 9.907 0 5.47 4.436 9.907 9.907 9.907 3.24 0 6.12-1.557 7.926-3.963h-7.174a2.733 2.733 0 0 1-2.733-2.732 1.64 1.64 0 0 0-1.64-1.64H8.552v-1.23h8.353a2.05 2.05 0 0 0 4.064 0h1.11v-.684h-1.133a2.05 2.05 0 0 0-4.018 0H8.552v-1.23h3.826a1.64 1.64 0 0 0 1.64-1.64 2.733 2.733 0 0 1 2.732-2.732h7.174z" fill-rule="evenodd"/></svg>