<svg xmlns="http://www.w3.org/2000/svg" width="32" height="32"><ellipse cx="14.05" cy="7.3" rx="1.61" ry="2.06"/><ellipse transform="rotate(-2.487 10.235 7.757)" cx="10.239" cy="7.76" rx="1.48" ry="1.9"/><ellipse transform="rotate(-177.507 17.95 7.78)" cx="17.951" cy="7.78" rx="1.48" ry="1.9"/><path d="M17.79 10.23c-.49-.02-.9.09-1.21.31.37.56.53 1.31.47 2.2-.07.88-.32 1.73-.56 2.55-.05.16-.09.31-.14.47.09.4.16.79.18 1.18.08 1.39.12 2.49.11 3.25 0 .51.32 1.01.83 1.03.51.02.86-.54.88-.93.02-.4.1-1.42.31-3.3s.84-2.23 1.06-4.11c.19-1.61-.53-2.59-1.93-2.65zM14.1 9.98c-1.52 0-2.35 1.03-2.21 2.78.15 2.05.82 2.45.96 4.51.14 2.05.18 3.16.18 3.59 0 .43.35 1.06.91 1.06s.93-.528.95-1.08c.02-.84.11-2.04.27-3.54.16-1.5.93-3.03 1.05-4.6.12-1.64-.61-2.72-2.11-2.72zM11.8 15.94a9.11 9.11 0 0 0-.24-.79c-.21-.63-.42-1.28-.5-2.35-.07-.93.11-1.7.51-2.28-.31-.2-.7-.3-1.17-.28-1.4.06-2.12 1.04-1.93 2.65.22 1.88.85 2.22 1.06 4.11.21 1.89.29 2.91.31 3.3s.37.96.88.93c.51-.02.83-.52.83-1.03-.01-.76.03-1.87.11-3.25.02-.35.07-.68.14-1.01z"/><path d="M28.45 14.78c-.78-2.12-3.65-3.19-7.35-3.08 2.36.17 4.12 1.02 4.66 2.49 1.02 2.78-2.7 6.72-8.32 8.79-5.62 2.08-11.01 1.5-12.04-1.28-.58-1.58.37-3.53 2.33-5.31-3.28 2.43-5.01 5.31-4.18 7.57 1.26 3.4 7.85 4.102 14.728 1.56C25.15 23 29.7 18.19 28.45 14.78z"/></svg>