<svg xmlns="http://www.w3.org/2000/svg" width="32" height="32"><path fill-rule="evenodd" clip-rule="evenodd" d="M23.42 16.173c.145.005.816.162.908.03.44-.644.736-.516.908-.43.193.095.312.474.338.755.11 1.25-1.178 1.845-1.393.635-.116-.662-.86-.673-.99-.635-.16.047-.163.297-.536.615-.516.44-1.182.863-1.182.863s.473.747 1.22.657c1.054-.128.94.567.478 1.114-.154.182-.414.313-.652.39-.203.064-.902.19-.7-.574.175-.665-.765-1.313-.765-1.313s-.732.438-1.12.607c-.702.31-1.118.484-1.118.484s.516 1.085.652 1.05c1.242-.326 1.516.88-.14 1.502-.872.327-1.356-.394-.515-1.184-.172-.366-.334-.72-.508-1.092-.898.43-2.933.94-2.933.94s-.114.934-.025.968c.604.242.934.75.316 1.28-.425.366-1.05.308-1.486 0-.327-.23-.503-1.007.51-1.2.076-.016.032-.585 0-1.058-1.162.026-2.388-.213-2.606-.28-.047-.016-.763.832-.66.958.572.707.15 1.604-1.136.825-.547-.333-.73-1.15-.336-1.37.6-.336 1.083.025 1.083.025l.492-.757s-.502-.39-.968-1.075c-.367-.54-.68-1.234-.68-1.234-1.696.645-3.446 1.294-5.18 1.99-.226.09-.447.386-.52.632-.202.676-.566.972-1.2.883-.687-.096-.82-.553-.74-1.123.047-.342.127-.695.266-1.01.373-.847.742-.896 1.447-.29.135.115.432.14.62.085 1.66-.482 5.243-1.75 5.243-1.75s.188-1.21.437-1.794c.25-.582.977-1.515.977-1.515s-.696-.615-.775-.635c-.455-.11-1.222.335-1.423-.376-.14-.497.19-1.35.84-1.57.554-.19 1.247.363 1.1.998-.15.657.21.886.592 1.163 0 0 .546-.505 1.338-.988.553-.338 1.303-.706 1.303-.706s-.036-.894-.228-.925c-.435-.068-.854-.194-.89-.592-.044-.48.318-.706.726-.796.745-.162 1.122.315 1.134.543.042.74-.517.69-.585.738.133.552.417.842.417.842s.742-.176 1.778-.26c.864-.07 1.928 0 1.928 0s.088-.555.105-.714-.14-.255-.396-.44c-.255-.183-.284-.726.343-1.05.625-.327.92.2 1.348.61.653.625.097.77-.237.722-.51-.068-.51.054-.527.23-.018.176-.123.828-.123.828.777.285 1.514.564 2.27.783.36.104.754-.582.738-.993-.01-.29-.024-.685.286-.84.38-.192.678-.042.922.118s.486.408.648.814c.076.195-.102.272-.197.275-.312.008-1.02.05-1.153.193-.398.43-.658.668-.432.837.156.118.758.59.94 1.038.034.08.534-.017.69-.033.73-.078 2.557-.52 3.543-.7.39-.07.553-.234.654-.594.396-1.41 1.15-1.03 1.713-.226.754 1.078.56 1.713-.023 2.035-.557.307-1.322.19-1.63-.34-.25-.433-.507-.42-.92-.328-1.07.238-2.155.42-3.233.626-.392.074-.52.045-.46.536.045.362.01.837-.05 1.154-.064.322-.064.413.12.417zm-8.263 1.89c1.225-.004 2.778-1.393 2.85-2.433a.857.857 0 0 0-.206-.56c-.685-.772-1.518-1.304-2.56-1.454-1.152-.165-1.857.342-2.042 1.463-.154.937.544 2.37 1.39 2.8.222.116.48.156.57.183zm6.595-3.135c-.02-.235.018-.514-.078-.737-.117-.274-.295-.597-.54-.72-.165-.085-.56.062-.72.232-.277.295-.484.67-.658 1.04-.258.548.062.977.457 1.27.29.21.82.455 1.023.33.27-.17.334-.68.475-1.047.04-.106.028-.23.042-.367z"/></svg>