<svg width="32" height="32" xmlns="http://www.w3.org/2000/svg"><path d="M22.335 8.176l-.5 2.567c-.06.277-.415.57-.743.57h-4.64c-.523 0-.896.35-.896.863v.56c0 .514.375.88.898.88h3.937c.37 0 .73.397.65.785-.08.39-.453 2.313-.498 2.525-.045.213-.292.576-.73.576h-3.214c-.585 0-.762.076-1.154.556-.39.48-3.912 4.645-3.912 4.645-.036.04-.07.03-.07-.015V8.138c0-.33.29-.714.723-.714h9.56c.35 0 .68.326.59.752zM23.038 5h-11.91C9.482 5 9 6.218 9 6.985v18.643c0 .864.47 1.184.736 1.29.265.105.996.194 1.434-.303 0 0 5.623-6.428 5.72-6.523.146-.144.146-.144.292-.144h3.638c1.53 0 1.775-1.074 1.934-1.707.133-.53 1.625-8.05 2.123-10.437.38-1.82-.09-2.803-1.84-2.803z" fill-rule="evenodd"/></svg>