<svg width="32" height="32" xmlns="http://www.w3.org/2000/svg"><path d="M20.388 27s-.234-.337-.234-.562v-3.95c0-1.212-.325-2.1-.974-2.66.712-.075 1.352-.188 1.92-.337a7.65 7.65 0 0 0 1.76-.73 5.234 5.234 0 0 0 1.517-1.245c.406-.493.736-1.15.992-1.966.255-.82.383-1.76.383-2.82 0-1.51-.493-2.796-1.48-3.857.463-1.137.413-2.41-.15-3.82-.35-.113-.854-.044-1.516.205-.662.25-1.236.525-1.723.824l-.71.45a13.29 13.29 0 0 0-3.597-.487 13.29 13.29 0 0 0-3.595.487c-.2-.138-.465-.306-.796-.506-.33-.2-.852-.44-1.564-.72-.712-.282-1.248-.366-1.61-.254-.55 1.41-.593 2.684-.13 3.82C7.893 9.935 7.4 11.22 7.4 12.73c0 1.06.127 1.998.383 2.81.256.81.584 1.466.983 1.966.4.5.902.917 1.508 1.254a7.65 7.65 0 0 0 1.76.73c.568.15 1.208.263 1.92.338-.5.45-.806 1.092-.918 1.93a3.714 3.714 0 0 1-.843.28 5.3 5.3 0 0 1-1.067.093c-.412 0-.82-.133-1.227-.402-.405-.268-.75-.658-1.038-1.17a3.02 3.02 0 0 0-.908-.974c-.37-.25-.678-.4-.927-.45l-.375-.055c-.262 0-.443.027-.543.083-.1.056-.132.128-.095.215.038.088.094.175.17.262.074.088.155.163.242.225l.13.094c.276.124.548.36.816.71.268.35.465.668.59.955l.187.43c.162.476.437.86.824 1.153.387.293.805.48 1.255.562.448.08.882.124 1.3.13a5.51 5.51 0 0 0 1.04-.065l.43-.075c0 .475.004 1.03.01 1.667l.01 1.01c0 .226-.244.563-.244.563h7.612z" fill-rule="evenodd"/></svg>