<svg width="32" height="32" xmlns="http://www.w3.org/2000/svg"><g fill-rule="evenodd"><path d="M25.893 10.182c.06.03.098.09.098.158v13.424c0 .34-.248.494-.553.342l-6.104-3.052 6.572-10.68a.15.15 0 0 0-.06-.212l.048.02z"/><path d="M15.003 13.984l4.233-6.878a.23.23 0 0 1 .293-.083l6.327 3.164a.15.15 0 0 1 .06.213l-6.56 10.66-4.354-7.076z" opacity=".8"/><path d="M12.688 17.75l6.66 3.33-6.617-10.752a.288.288 0 0 0-.116-.107l-.036-.008a.15.15 0 0 1 .082.133v7.36l.028.045z" opacity=".6"/><path d="M12.66 23.787c0 .34-.25.494-.553.342L6.37 21.26a.733.733 0 0 1-.37-.597V7.336c0-.227.166-.33.37-.228l6.208 3.104a.15.15 0 0 1 .082.133v13.442" opacity=".4"/></g></svg>