<svg xmlns="http://www.w3.org/2000/svg" width="32" height="32"><g fill-rule="evenodd" clip-rule="evenodd"><path d="M25.473 5.512c.057.168.14.33.164.502.076.535.11 1.07-.264 1.533-.396.492-.93.627-1.525.59-.773-.047-1.502-.268-2.2-.598-1.224-.58-2.458-1.124-3.784-1.427-1.9-.432-3.773-.354-5.568.426-1.824.79-2.852 2.712-2.582 4.68.23 1.692 1.062 3.007 2.494 3.937.63.408 1.334.52 2.062.44.564-.062 1.12-.177 1.682-.267.045-.006.092 0 .193 0-.55.332-1.096.52-1.672.63a6.55 6.55 0 0 1-2.31.01c-.647-.106-1.198-.427-1.65-.894-.976-1.014-1.66-2.195-1.907-3.592-.383-2.145.4-3.83 2.113-5.11 1.03-.774 2.23-1.15 3.49-1.353 2.202-.356 4.267.118 6.267 1.022.908.41 1.822.807 2.748 1.17.295.117.652.195.957.15.68-.104.986-.633 1.156-1.244.053-.188.057-.39.082-.584a1.19 1.19 0 0 0 .053-.022z"/><path d="M18.307 27.072c.135-.076.252-.16.38-.213.77-.32 1.548-.612 2.31-.946.475-.207.928-.463 1.383-.713.148-.08.277-.204.402-.323.24-.236.3-.502.166-.832-.62-1.535-1.24-3.068-1.824-4.617a12.2 12.2 0 0 1-.762-3.184c-.066-.715-.07-1.438.148-2.135.184-.585.574-1.034 1.03-1.425.583-.5 1.27-.822 1.964-1.133.684-.307 1.387-.582 2.035-.95.51-.288.983-.665 1.417-1.063.623-.573.822-1.35.863-2.173.037-.77-.084-1.525-.26-2.275-.03-.125-.047-.254-.03-.402.042.043.093.08.122.13.492.827.818 1.702.8 2.685-.024 1.002-.468 1.818-1.118 2.545-.68.762-1.562 1.225-2.455 1.678-.735.373-1.474.744-2.18 1.166-.67.4-1.196.96-1.415 1.744-.166.596-.098 1.195.002 1.79.28 1.688.97 3.24 1.63 4.804.35.834.694 1.674.972 2.53.228.702.022 1.355-.478 1.9-.555.604-1.283.907-2.055 1.122-.934.262-1.89.357-2.857.365a.644.644 0 0 1-.123-.015c-.014-.002-.023-.018-.07-.063zM8.303 12.617c-.965 1.34-1.838 2.738-2.54 4.234-.4.858-.817 1.714-.976 2.66-.31 1.862-.02 3.57 1.38 4.95.745.736 1.706 1.11 2.692 1.404 1.003.3 2.038.45 3.08.553 1.073.107 2.145.22 3.218.326.574.06 1.148.104 1.72.17.144.018.28.09.42.137a.988.988 0 0 0-.01.076c-.048.018-.095.05-.142.05-1.756.052-3.512.144-5.266.134-1.19-.008-2.396-.045-3.553-.383-1.887-.553-3.395-1.61-4.256-3.428-.606-1.278-.645-2.64-.317-3.99.52-2.132 1.49-4.046 3.023-5.64.454-.472.988-.87 1.484-1.302l.043.05z"/><path d="M12.61 21.643c.52-.06 1.038-.146 1.56-.17a62.68 62.68 0 0 1 2.842-.053c.336.002.674.062 1.002.133.53.113.64.23.662.764a11.98 11.98 0 0 1-.588 4.354c-.068.206-.203.392-.344.57-.17-.26-.12-.522-.102-.778.09-1.057.207-2.113.266-3.172.043-.738-.076-.86-.777-1.113-.733-.268-1.503-.348-2.276-.39-.746-.044-1.494-.07-2.24-.103-.003-.014-.003-.028-.005-.04z"/></g></svg>