<svg xmlns="http://www.w3.org/2000/svg" width="32" height="32"><g><path d="M11.124 13.07c-.927 1.822 2.148 6.694 4.754 9.37 1.294 1.33 1.928 2.477 2.194 3.053 2.103.5 3.276-.29 3.422-.398.023-.04.046-.08.066-.124.934-1.936-1.46-4.824-3.19-7.066-2.143-2.775-2.704-4.83-2.704-4.83l-.01-.012c-3.51-1.58-4.532.007-4.532.007z"/><path d="M11.124 13.07c.03-.058.065-.11.1-.167a1.69 1.69 0 0 0-.1.166zM20.188 10.353l.003.003c.31.158.477.284.477.284l.04-.018c.205-4.96-2.928-7.407-2.928-7.407-.69.874-1.155 2.212-1.395 3.036.257.113.512.237.76.376 2.133 1.194 2.83 2.928 3.043 3.727z"/><path d="M20.188 10.353c-.215-.8-.91-2.532-3.042-3.727a8.65 8.65 0 0 0-.76-.375c-2.275-.986-4.734-.958-4.734-.958s.002 2.92 3.08 4.954c.48-.17 1-.312 1.568-.417 1.82-.34 3.203.173 3.888.523zM21.494 25.095c-.146.107-1.32.9-3.422.398-1.105-.263-2.466-.882-4.07-2.15-2.306-1.826-4.026-3.434-5.203-5.53-.3-.53-.985-.565-1.372.2-.602 1.19-.67 4.498.703 6.436 0 0-.376 1.277.618 2.366.668.73 2.216 1.062 3.055.764.058-.02.113-.043.166-.068 0 0 1.725 1.303 4.366.81 2.64-.492 4.33-1.725 5.176-3.24l-.018.013z"/><path d="M24.505 13.702s.377-1.278-.617-2.367c-.668-.73-2.216-1.062-3.056-.764a2.688 2.688 0 0 0-.165.07s-.167-.126-.476-.284l-.002-.003c-.686-.35-2.07-.863-3.888-.523-.567.105-1.088.248-1.568.417-1.675.59-2.83 1.54-3.51 2.657l-.1.166s1.022-1.586 4.532-.008c.843.38 1.827.938 2.978 1.747 2.406 1.693 4.027 3.432 5.204 5.527.298.53.984.566 1.37-.2.604-1.19.672-4.497-.7-6.435z"/></g></svg>