<svg xmlns="http://www.w3.org/2000/svg" width="32" height="32"><path d="M23.1 17.05c.1-.35.18-.71.24-1.08h.19c3.78 0 8.21.82 8.3.83H32v-1.47c-2.83-.32-7.14-.58-8.53-.66.04-2.34-.92-4.23-2.55-4.96-.48-.22-1.01-.33-1.56-.33-2.09 0-4.3 1.58-5.67 4.03-.42-.04-1.28-.08-2.03-.02-.28-1.21-.94-2.11-1.89-2.53-.39-.17-.8-.26-1.24-.26-1.84 0-3.77 1.53-4.79 3.81-1.04 2.31-.85 4.82.39 6.16-1.46.11-2.83.24-4.13.38v1.59c1.54-.21 6.68-.87 13.39-1.24.48-.03.98-.05 1.48-.08 1.2-.06 2.45-.1 3.73-.14.72-.02 1.44-.03 2.17-.04.68-.01 1.36-.01 2.05-.01h.41c5.08.02 7.56.01 8.77.01v-1.17c-1.11-.02-2.94-.06-5.27-.06-.67-1.09-1.89-2.01-3.63-2.76zM8.46 11.76c.26 0 .5.05.73.15.85.39 1.32 1.45 1.26 2.81-1.71-.09-3.2-.11-4.17-.11-.52 0-.95.01-1.26.01.78-1.68 2.19-2.86 3.44-2.86zM6.39 19.9c-.26 0-.5-.05-.73-.15-1.07-.48-1.52-2.03-1.11-3.8.71-.03 2.57-.09 5.7-.03-.09.35-.21.69-.36 1.02-.79 1.74-2.22 2.96-3.5 2.96zm2.94.31c.73-.66 1.35-1.52 1.79-2.49.26-.57.44-1.16.56-1.77l.43.01c.19.01.39.01.58.02-.35 1.43-.34 2.85.01 4.06-1.14.06-2.26.11-3.37.17zm11.63-2.55c-.38.84-.9 1.6-1.52 2.2-1.72.03-3.47.08-5.2.14-.66-.99-.85-2.44-.52-3.95 2.92.18 5.41.58 7.41 1.2-.05.13-.11.27-.17.41zm.43-1.25c-1.99-.63-4.46-1.1-7.36-1.41.05-.13.1-.26.16-.39.96-2.14 2.76-3.57 4.47-3.57.39 0 .76.08 1.1.23 1.55.7 2.22 2.83 1.63 5.14zm3.91 3.39c-1.08 0-2.24 0-3.47.02a10.634 10.634 0 0 0 1-1.95c1.64.72 2.41 1.47 2.76 1.93h-.29z"/></svg>