<svg width="32" height="32" xmlns="http://www.w3.org/2000/svg"><path d="M27.114 11.493c-.103 2.25-1.675 5.333-4.716 9.245-3.145 4.085-5.805 6.13-7.98 6.13-1.35 0-2.49-1.245-3.42-3.734L9.13 16.29c-.692-2.487-1.433-3.732-2.228-3.732-.173 0-.778.364-1.815 1.09L4 12.245a287.084 287.084 0 0 0 3.374-3.01C8.897 7.923 10.04 7.23 10.802 7.16c1.8-.173 2.907 1.057 3.322 3.69.45 2.84.76 4.608.935 5.3.518 2.356 1.09 3.534 1.713 3.534.483 0 1.21-.765 2.18-2.294.968-1.53 1.487-2.692 1.557-3.49.138-1.32-.38-1.982-1.557-1.982-.554 0-1.124.128-1.712.38 1.138-3.723 3.31-5.53 6.514-5.427 2.376.07 3.497 1.61 3.36 4.623" fill-rule="evenodd"/></svg>