<svg width="32" height="32" xmlns="http://www.w3.org/2000/svg"><path d="M15.838 21.19v1.56c-.008 2.388-.032 3.635-.073 3.74-.098.263-.307.427-.626.492-.443.074-1.185-.082-2.228-.466-1.043-.384-1.707-.748-1.994-1.092a.925.925 0 0 1-.208-.442.76.76 0 0 1 .05-.32c.032-.08.17-.273.416-.575.245-.303.986-1.186 2.22-2.65.01 0 .254-.287.737-.86a.83.83 0 0 1 .485-.3c.2-.045.402-.03.607.043.196.082.35.2.46.356.11.155.162.327.153.515zm-1.828-3.078c-.024.45-.237.736-.638.858l-1.472.48c-2.25.72-3.444 1.08-3.583 1.08-.286-.018-.507-.165-.662-.443-.098-.205-.168-.51-.21-.92-.064-.622-.06-1.303.013-2.043.074-.74.197-1.25.37-1.528.17-.278.4-.41.686-.392.106 0 .932.315 2.478.945.573.236 1.043.428 1.41.575l1.032.417a.848.848 0 0 1 .435.375c.1.175.148.374.14.595zm10.135 3.644c-.058.44-.432 1.1-1.123 1.975-.69.876-1.245 1.396-1.663 1.56-.303.114-.56.085-.773-.087-.115-.082-.867-1.255-2.258-3.52l-.578-.946a.838.838 0 0 1-.14-.564c.02-.205.1-.393.238-.565.287-.35.626-.458 1.02-.32.007.01.494.173 1.46.492 1.66.54 2.65.865 2.968.976.32.11.51.194.577.25.23.18.32.43.27.75zM15.9 14c.04.836-.18 1.335-.663 1.498-.474.14-.94-.15-1.4-.87L9.202 7.29c-.065-.286.013-.54.234-.76.335-.352 1.184-.718 2.546-1.1 1.362-.38 2.28-.508 2.754-.385.327.082.528.266.6.552.026.147.116 1.397.27 3.748.157 2.352.255 3.904.296 4.656zm8.122 1.326c.024.32-.082.56-.32.724-.122.082-1.467.434-4.036 1.056-.548.122-.92.216-1.116.282l.012-.025a.845.845 0 0 1-.564-.05 1.004 1.004 0 0 1-.454-.392c-.246-.383-.246-.74 0-1.066.008-.008.315-.425.92-1.25a294.39 294.39 0 0 1 1.84-2.504c.205-.27.344-.43.417-.48.23-.154.496-.162.8-.023.392.188.895.734 1.508 1.638.614.903.945 1.588.994 2.055v.036z" fill-rule="evenodd"/></svg>