<svg width="32" height="32" xmlns="http://www.w3.org/2000/svg"><path d="M13.437 15.61c-.11.626-.175 1.017-.197 1.17-.11.574-.06 1.053.147 1.438.208.385.585.578 1.132.578.13 0 .35-.044.655-.132.307-.088.613-.198.92-.33.02.242.13.396.327.462s.416.088.656.066c.153 0 .295-.022.427-.066.13-.044.207-.077.23-.1.043-.02.07-.05.08-.08a.368.368 0 0 0 .018-.117l-.082-.25c-.032-.098-.027-.29.017-.577.044-.176.273-1.453.69-3.83.02-.178.032-.337.032-.48a.565.565 0 0 0-.1-.347c-.065-.132-.185-.22-.36-.264a1.557 1.557 0 0 0-.558-.033.973.973 0 0 0-.41.08.966.966 0 0 1-.214.084c-.043.022-.07.05-.082.082a.283.283 0 0 0-.016.083.89.89 0 0 0 .05.28c.032.1.027.29-.017.578-.022.176-.197 1.167-.525 2.972-.13.088-.273.155-.427.2a1.463 1.463 0 0 1-.392.065c-.197 0-.34-.05-.427-.15-.086-.098-.108-.302-.064-.61.065-.264.218-1.112.46-2.543.043-.177.06-.336.048-.48a.95.95 0 0 0-.082-.346.636.636 0 0 0-.393-.264 1.557 1.557 0 0 0-.56-.033.976.976 0 0 0-.41.08.967.967 0 0 1-.212.084c-.044.022-.07.05-.082.082a.273.273 0 0 0-.017.083c.02.087.048.18.08.28.034.1.018.29-.048.578l-.295 1.7zm5.724 3.22a1.6 1.6 0 0 0 .575.032c.153 0 .29-.028.41-.083a.967.967 0 0 1 .214-.083c.042-.022.07-.05.08-.082a.368.368 0 0 0 .017-.116l-.082-.25c-.033-.098-.027-.224.016-.38l.56-3.302c.11-.088.24-.165.393-.23a.99.99 0 0 1 .36-.1c.198 0 .323.06.378.182.056.12.06.313.017.578l-.46 2.74c-.043.177-.06.337-.048.48.01.143.037.26.08.347a.63.63 0 0 0 .378.264 1.6 1.6 0 0 0 .574.032c.154 0 .29-.028.41-.083a.966.966 0 0 1 .214-.083.553.553 0 0 0 .065-.082.204.204 0 0 0 .034-.116 1.762 1.762 0 0 1-.082-.216c-.033-.1-.027-.226.017-.38.02-.176.206-1.288.556-3.336.11-.088.24-.165.394-.23a.99.99 0 0 1 .36-.1c.176 0 .296.06.362.182.065.12.076.303.033.545l-.493 2.774a3.953 3.953 0 0 0-.032.478c0 .143.032.26.098.347a.63.63 0 0 0 .377.264c.164.043.345.054.542.032a.95.95 0 0 0 .426-.083.64.64 0 0 1 .23-.083.21.21 0 0 0 .05-.082.368.368 0 0 0 .015-.116.55.55 0 0 0-.05-.216c-.032-.077-.037-.226-.015-.446l.59-3.27a4.57 4.57 0 0 0 .066-.743c0-.23-.045-.424-.132-.578-.11-.264-.252-.43-.427-.495a2.315 2.315 0 0 0-.59-.132c-.306-.022-.584.038-.933.18-.35.144-.836.293-.836.447v-.033c-.296-.22-.3-.37-.476-.446a2.103 2.103 0 0 0-.615-.148 2.074 2.074 0 0 0-.883.132c-.295.11-.57.23-.81.363a.515.515 0 0 0-.397-.363 1.786 1.786 0 0 0-.592-.033.985.985 0 0 0-.41.08.958.958 0 0 1-.215.084c-.043.022-.07.05-.082.082a.368.368 0 0 0-.015.116c.02.044.043.11.065.198.022.088.022.23 0 .43-.306 1.74-.48 2.74-.525 3.005l-.164 1.024a1.51 1.51 0 0 0-.048.478.95.95 0 0 0 .082.347.63.63 0 0 0 .377.264zM9.01 22.494a.915.915 0 0 1-.46.132.435.435 0 0 1-.36-.165c-.088-.11-.07-.402.05-.875.12-.473.682-.798 1.688-.974-.306 1.08-.612 1.706-.918 1.882zm17.928-2.146a1.687 1.687 0 0 0-.54-.893c-.023-.022-.056-.033-.1-.033-.043 0-.076.01-.098.033-.962.572-2.04.892-3.23.957a19.978 19.978 0 0 1-3.692-.148 57.125 57.125 0 0 1-3.805-.628 26.225 26.225 0 0 0-3.608-.48l1.378-7.96c.043-.175.06-.335.05-.478a.953.953 0 0 0-.083-.347.6.6 0 0 0-.377-.297 1.6 1.6 0 0 0-.574-.033c-.153.022-.29.055-.41.1a.766.766 0 0 0-.214.098c-.043.023-.07.05-.082.084a.27.27 0 0 0-.016.083c0 .088.016.18.05.28.032.1.026.292-.017.578 0 .067-.093.622-.28 1.668-.185 1.046-.376 2.11-.573 3.188a4.78 4.78 0 0 1-1.624.66c-.558.11-.902.067-1.033-.13-.066-.09-.1-.22-.1-.397 0-.176.034-.385.1-.628.02-.066.142-.512.36-1.337l.46-1.734c.153-.64.147-1.206-.017-1.702-.164-.495-.563-.776-1.197-.842a2.853 2.853 0 0 0-1.56.298c-.47.242-.79.45-.966.627a.447.447 0 0 0-.132.397c.022.154.088.32.197.495a2.2 2.2 0 0 0 .263.33l.164.165a.262.262 0 0 0 .114.033.11.11 0 0 0 .082-.033 2.54 2.54 0 0 1 .705-.495c.274-.132.466-.143.575-.033.11.088.16.203.148.346-.01.144-.04.292-.082.446-.546 2.026-.885 3.326-1.016 3.898a2.25 2.25 0 0 0-.017 1.172c.1.364.3.634.607.81.438.264 1.05.32 1.837.165.79-.153 1.39-.385 1.806-.693-.066.375-.142.782-.23 1.222-.35.02-.744.1-1.18.23-.438.133-.832.31-1.182.53a2.997 2.997 0 0 0-1.427 1.832c-.23.804-.115 1.46.344 1.965.44.485.986.688 1.642.612.656-.08 1.148-.227 1.476-.447.547-.353.957-.848 1.23-1.487a8.51 8.51 0 0 0 .574-1.915c1.094.045 2.32.232 3.675.562 1.355.33 2.723.61 4.1.842 1.378.232 2.7.336 3.97.314 1.268-.022 2.362-.352 3.28-.99.285-.2.378-.485.28-.86" fill-rule="evenodd"/></svg>